<mxfile host="Electron" modified="2024-04-23T19:47:16.554Z" agent="Mozilla/5.0 (Windows NT 10.0; Win64; x64) AppleWebKit/537.36 (KHTML, like Gecko) draw.io/24.2.5 Chrome/120.0.6099.109 Electron/28.1.0 Safari/537.36" etag="nK5xws-E0F8gg1S0hQ1K" version="24.2.5" type="device">
  <diagram name="PÃ¡gina-1" id="wMujn-VWb8txOB4r1fCe">
    <mxGraphModel dx="531" dy="311" grid="1" gridSize="10" guides="1" tooltips="1" connect="1" arrows="1" fold="1" page="1" pageScale="1" pageWidth="827" pageHeight="1169" math="0" shadow="0">
      <root>
        <mxCell id="0" />
        <mxCell id="1" parent="0" />
        <mxCell id="s7VTZGJsR6PY3-pL34SC-2" value="" style="rounded=0;whiteSpace=wrap;html=1;rotation=90;" parent="1" vertex="1">
          <mxGeometry x="297.36" y="139.52" width="202.8" height="82.5" as="geometry" />
        </mxCell>
        <mxCell id="s7VTZGJsR6PY3-pL34SC-7" value="" style="endArrow=none;html=1;rounded=0;" parent="1" edge="1">
          <mxGeometry width="50" height="50" relative="1" as="geometry">
            <mxPoint x="358" y="200" as="sourcePoint" />
            <mxPoint x="440" y="200" as="targetPoint" />
          </mxGeometry>
        </mxCell>
        <mxCell id="s7VTZGJsR6PY3-pL34SC-9" value="" style="endArrow=none;html=1;rounded=0;" parent="1" edge="1">
          <mxGeometry width="50" height="50" relative="1" as="geometry">
            <mxPoint x="359" y="120" as="sourcePoint" />
            <mxPoint x="441" y="120" as="targetPoint" />
          </mxGeometry>
        </mxCell>
        <mxCell id="s7VTZGJsR6PY3-pL34SC-11" value="RAM&lt;div&gt;32KB&lt;/div&gt;&lt;div&gt;16K x 8&lt;/div&gt;" style="text;strokeColor=none;align=center;fillColor=none;html=1;verticalAlign=middle;whiteSpace=wrap;rounded=0;" parent="1" vertex="1">
          <mxGeometry x="368.76" y="224" width="60" height="30" as="geometry" />
        </mxCell>
        <mxCell id="s7VTZGJsR6PY3-pL34SC-12" value="Inport" style="text;strokeColor=none;align=center;fillColor=none;html=1;verticalAlign=middle;whiteSpace=wrap;rounded=0;" parent="1" vertex="1">
          <mxGeometry x="368" y="95" width="60" height="30" as="geometry" />
        </mxCell>
        <mxCell id="s7VTZGJsR6PY3-pL34SC-13" value="Outport" style="text;strokeColor=none;align=center;fillColor=none;html=1;verticalAlign=middle;whiteSpace=wrap;rounded=0;" parent="1" vertex="1">
          <mxGeometry x="369" y="79" width="60" height="30" as="geometry" />
        </mxCell>
        <mxCell id="HD-7FaCMFkSxDn-0n0qK-1" value="FFBF" style="text;strokeColor=none;align=center;fillColor=none;html=1;verticalAlign=middle;whiteSpace=wrap;rounded=0;" parent="1" vertex="1">
          <mxGeometry x="427" y="89" width="60" height="30" as="geometry" />
        </mxCell>
        <mxCell id="HD-7FaCMFkSxDn-0n0qK-2" value="FFFF" style="text;strokeColor=none;align=center;fillColor=none;html=1;verticalAlign=middle;whiteSpace=wrap;rounded=0;" parent="1" vertex="1">
          <mxGeometry x="429" y="71" width="60" height="30" as="geometry" />
        </mxCell>
        <mxCell id="HD-7FaCMFkSxDn-0n0qK-6" value="0" style="text;strokeColor=none;align=center;fillColor=none;html=1;verticalAlign=middle;whiteSpace=wrap;rounded=0;" parent="1" vertex="1">
          <mxGeometry x="320" y="262" width="60" height="30" as="geometry" />
        </mxCell>
        <mxCell id="HD-7FaCMFkSxDn-0n0qK-7" value="7FFF" style="text;strokeColor=none;align=center;fillColor=none;html=1;verticalAlign=middle;whiteSpace=wrap;rounded=0;" parent="1" vertex="1">
          <mxGeometry x="429" y="190" width="60" height="30" as="geometry" />
        </mxCell>
        <mxCell id="XAWKQqGgLzVSHHggSEPZ-3" value="FF80" style="text;strokeColor=none;align=center;fillColor=none;html=1;verticalAlign=middle;whiteSpace=wrap;rounded=0;" vertex="1" parent="1">
          <mxGeometry x="308.76" y="100.52000000000001" width="60" height="30" as="geometry" />
        </mxCell>
        <mxCell id="XAWKQqGgLzVSHHggSEPZ-4" value="FFC0" style="text;strokeColor=none;align=center;fillColor=none;html=1;verticalAlign=middle;whiteSpace=wrap;rounded=0;" vertex="1" parent="1">
          <mxGeometry x="308.76" y="79" width="60" height="30" as="geometry" />
        </mxCell>
        <mxCell id="XAWKQqGgLzVSHHggSEPZ-7" value="" style="endArrow=none;html=1;rounded=0;" edge="1" parent="1">
          <mxGeometry width="50" height="50" relative="1" as="geometry">
            <mxPoint x="358.76" y="100" as="sourcePoint" />
            <mxPoint x="440.76" y="100" as="targetPoint" />
          </mxGeometry>
        </mxCell>
        <mxCell id="XAWKQqGgLzVSHHggSEPZ-10" value="" style="rounded=0;whiteSpace=wrap;html=1;rotation=90;" vertex="1" parent="1">
          <mxGeometry x="551.4" y="42.12" width="40" height="82.5" as="geometry" />
        </mxCell>
        <mxCell id="XAWKQqGgLzVSHHggSEPZ-11" value="&lt;font style=&quot;font-size: 8px;&quot;&gt;Inport e Outport em fold-back&lt;/font&gt;" style="text;strokeColor=none;align=center;fillColor=none;html=1;verticalAlign=middle;whiteSpace=wrap;rounded=0;" vertex="1" parent="1">
          <mxGeometry x="541.4" y="68.37" width="60" height="30" as="geometry" />
        </mxCell>
        <mxCell id="XAWKQqGgLzVSHHggSEPZ-12" value="" style="endArrow=none;dashed=1;html=1;rounded=0;exitX=0.068;exitY=0.268;exitDx=0;exitDy=0;entryX=0;entryY=1;entryDx=0;entryDy=0;exitPerimeter=0;" edge="1" parent="1" source="HD-7FaCMFkSxDn-0n0qK-2" target="XAWKQqGgLzVSHHggSEPZ-10">
          <mxGeometry width="50" height="50" relative="1" as="geometry">
            <mxPoint x="490" y="190" as="sourcePoint" />
            <mxPoint x="540" y="140" as="targetPoint" />
          </mxGeometry>
        </mxCell>
        <mxCell id="XAWKQqGgLzVSHHggSEPZ-13" value="" style="endArrow=none;dashed=1;html=1;rounded=0;exitX=0.25;exitY=1;exitDx=0;exitDy=0;entryX=1;entryY=1;entryDx=0;entryDy=0;" edge="1" parent="1" source="HD-7FaCMFkSxDn-0n0qK-1" target="XAWKQqGgLzVSHHggSEPZ-10">
          <mxGeometry width="50" height="50" relative="1" as="geometry">
            <mxPoint x="489" y="119" as="sourcePoint" />
            <mxPoint x="532" y="119" as="targetPoint" />
          </mxGeometry>
        </mxCell>
      </root>
    </mxGraphModel>
  </diagram>
</mxfile>
